<mxfile host="app.diagrams.net" modified="2023-12-08T16:39:11.532Z" agent="Mozilla/5.0 (Windows NT 10.0; Win64; x64) AppleWebKit/537.36 (KHTML, like Gecko) Chrome/119.0.0.0 Safari/537.36 Edg/119.0.0.0" etag="N1ni3YDnHcMVbw1H9Ar7" version="22.1.7" type="github">
  <diagram id="C5RBs43oDa-KdzZeNtuy" name="Page-1">
    <mxGraphModel dx="1090" dy="591" grid="1" gridSize="10" guides="1" tooltips="1" connect="1" arrows="1" fold="1" page="1" pageScale="1" pageWidth="827" pageHeight="1169" math="0" shadow="0">
      <root>
        <mxCell id="WIyWlLk6GJQsqaUBKTNV-0" />
        <mxCell id="WIyWlLk6GJQsqaUBKTNV-1" parent="WIyWlLk6GJQsqaUBKTNV-0" />
        <mxCell id="-2s8SgQ4iltVMkGu54WP-41" value="" style="edgeStyle=orthogonalEdgeStyle;rounded=0;orthogonalLoop=1;jettySize=auto;html=1;" edge="1" parent="WIyWlLk6GJQsqaUBKTNV-1" source="WIyWlLk6GJQsqaUBKTNV-3" target="-2s8SgQ4iltVMkGu54WP-19">
          <mxGeometry relative="1" as="geometry" />
        </mxCell>
        <mxCell id="WIyWlLk6GJQsqaUBKTNV-3" value="Login" style="rounded=1;whiteSpace=wrap;html=1;fontSize=12;glass=0;strokeWidth=1;shadow=0;" parent="WIyWlLk6GJQsqaUBKTNV-1" vertex="1">
          <mxGeometry x="160" y="160" width="120" height="40" as="geometry" />
        </mxCell>
        <mxCell id="-2s8SgQ4iltVMkGu54WP-40" value="" style="edgeStyle=orthogonalEdgeStyle;rounded=0;orthogonalLoop=1;jettySize=auto;html=1;" edge="1" parent="WIyWlLk6GJQsqaUBKTNV-1" source="-2s8SgQ4iltVMkGu54WP-2" target="WIyWlLk6GJQsqaUBKTNV-3">
          <mxGeometry relative="1" as="geometry" />
        </mxCell>
        <mxCell id="-2s8SgQ4iltVMkGu54WP-2" value="Mulai" style="strokeWidth=1;html=1;shape=mxgraph.flowchart.terminator;whiteSpace=wrap;" vertex="1" parent="WIyWlLk6GJQsqaUBKTNV-1">
          <mxGeometry x="186.66" y="80" width="66.67" height="40" as="geometry" />
        </mxCell>
        <mxCell id="-2s8SgQ4iltVMkGu54WP-18" value="" style="edgeStyle=orthogonalEdgeStyle;rounded=0;orthogonalLoop=1;jettySize=auto;html=1;entryX=0.5;entryY=0;entryDx=0;entryDy=0;" edge="1" parent="WIyWlLk6GJQsqaUBKTNV-1" source="-2s8SgQ4iltVMkGu54WP-11" target="-2s8SgQ4iltVMkGu54WP-21">
          <mxGeometry relative="1" as="geometry">
            <mxPoint x="220" y="440" as="targetPoint" />
          </mxGeometry>
        </mxCell>
        <mxCell id="-2s8SgQ4iltVMkGu54WP-11" value="Hitung Biaya Pengiriman" style="rounded=1;whiteSpace=wrap;html=1;fontSize=12;glass=0;strokeWidth=1;shadow=0;" vertex="1" parent="WIyWlLk6GJQsqaUBKTNV-1">
          <mxGeometry x="120" y="360" width="200" height="40" as="geometry" />
        </mxCell>
        <mxCell id="-2s8SgQ4iltVMkGu54WP-39" value="" style="edgeStyle=orthogonalEdgeStyle;rounded=0;orthogonalLoop=1;jettySize=auto;html=1;" edge="1" parent="WIyWlLk6GJQsqaUBKTNV-1" source="-2s8SgQ4iltVMkGu54WP-19" target="-2s8SgQ4iltVMkGu54WP-11">
          <mxGeometry relative="1" as="geometry" />
        </mxCell>
        <mxCell id="-2s8SgQ4iltVMkGu54WP-19" value="Pilih Layanan Pengiriman, Input Data Pengirim dan Penerima, Pilih Ukuran dan Berat Barang" style="shape=parallelogram;html=1;strokeWidth=1;perimeter=parallelogramPerimeter;rounded=1;arcSize=12;size=0.23;whiteSpace=wrap;spacingLeft=60;spacingRight=60;" vertex="1" parent="WIyWlLk6GJQsqaUBKTNV-1">
          <mxGeometry x="80" y="240" width="280" height="80" as="geometry" />
        </mxCell>
        <mxCell id="-2s8SgQ4iltVMkGu54WP-24" value="" style="edgeStyle=orthogonalEdgeStyle;rounded=0;orthogonalLoop=1;jettySize=auto;html=1;" edge="1" parent="WIyWlLk6GJQsqaUBKTNV-1" source="-2s8SgQ4iltVMkGu54WP-21" target="-2s8SgQ4iltVMkGu54WP-23">
          <mxGeometry relative="1" as="geometry" />
        </mxCell>
        <mxCell id="-2s8SgQ4iltVMkGu54WP-21" value="Pilih Metode Pembayaran" style="shape=parallelogram;html=1;strokeWidth=1;perimeter=parallelogramPerimeter;rounded=1;arcSize=12;size=0.23;whiteSpace=wrap;" vertex="1" parent="WIyWlLk6GJQsqaUBKTNV-1">
          <mxGeometry x="80" y="440" width="280" height="40" as="geometry" />
        </mxCell>
        <mxCell id="-2s8SgQ4iltVMkGu54WP-28" value="" style="edgeStyle=orthogonalEdgeStyle;rounded=0;orthogonalLoop=1;jettySize=auto;html=1;" edge="1" parent="WIyWlLk6GJQsqaUBKTNV-1" source="-2s8SgQ4iltVMkGu54WP-23" target="-2s8SgQ4iltVMkGu54WP-27">
          <mxGeometry relative="1" as="geometry" />
        </mxCell>
        <mxCell id="-2s8SgQ4iltVMkGu54WP-23" value="Bayar Biaya Pengiriman" style="whiteSpace=wrap;html=1;strokeWidth=1;rounded=1;arcSize=12;" vertex="1" parent="WIyWlLk6GJQsqaUBKTNV-1">
          <mxGeometry x="120" y="520" width="200" height="40" as="geometry" />
        </mxCell>
        <mxCell id="-2s8SgQ4iltVMkGu54WP-43" value="" style="edgeStyle=orthogonalEdgeStyle;rounded=0;orthogonalLoop=1;jettySize=auto;html=1;exitX=0.5;exitY=1;exitDx=0;exitDy=0;" edge="1" parent="WIyWlLk6GJQsqaUBKTNV-1" source="-2s8SgQ4iltVMkGu54WP-45" target="-2s8SgQ4iltVMkGu54WP-42">
          <mxGeometry relative="1" as="geometry">
            <mxPoint x="219.9999999999999" y="800" as="sourcePoint" />
          </mxGeometry>
        </mxCell>
        <mxCell id="-2s8SgQ4iltVMkGu54WP-27" value="Pembayaran&lt;br&gt;Sukses" style="rhombus;whiteSpace=wrap;html=1;strokeWidth=1;rounded=1;arcSize=12;" vertex="1" parent="WIyWlLk6GJQsqaUBKTNV-1">
          <mxGeometry x="150" y="600" width="140" height="120" as="geometry" />
        </mxCell>
        <mxCell id="-2s8SgQ4iltVMkGu54WP-33" value="Ya" style="endArrow=classic;html=1;rounded=0;exitX=0.5;exitY=1;exitDx=0;exitDy=0;entryX=0.5;entryY=0;entryDx=0;entryDy=0;edgeStyle=orthogonalEdgeStyle;" edge="1" parent="WIyWlLk6GJQsqaUBKTNV-1" source="-2s8SgQ4iltVMkGu54WP-27" target="-2s8SgQ4iltVMkGu54WP-45">
          <mxGeometry relative="1" as="geometry">
            <mxPoint x="300" y="690" as="sourcePoint" />
            <mxPoint x="219.9999999999999" y="760" as="targetPoint" />
          </mxGeometry>
        </mxCell>
        <mxCell id="-2s8SgQ4iltVMkGu54WP-34" value="Ya" style="edgeLabel;resizable=0;html=1;align=center;verticalAlign=middle;" connectable="0" vertex="1" parent="-2s8SgQ4iltVMkGu54WP-33">
          <mxGeometry relative="1" as="geometry" />
        </mxCell>
        <mxCell id="-2s8SgQ4iltVMkGu54WP-36" value="Ya" style="endArrow=classic;html=1;rounded=0;exitX=1;exitY=0.5;exitDx=0;exitDy=0;edgeStyle=orthogonalEdgeStyle;" edge="1" parent="WIyWlLk6GJQsqaUBKTNV-1" source="-2s8SgQ4iltVMkGu54WP-27">
          <mxGeometry relative="1" as="geometry">
            <mxPoint x="230" y="730" as="sourcePoint" />
            <mxPoint x="220" y="500" as="targetPoint" />
            <Array as="points">
              <mxPoint x="360" y="660" />
              <mxPoint x="360" y="500" />
            </Array>
          </mxGeometry>
        </mxCell>
        <mxCell id="-2s8SgQ4iltVMkGu54WP-37" value="Tidak" style="edgeLabel;resizable=0;html=1;align=center;verticalAlign=middle;" connectable="0" vertex="1" parent="-2s8SgQ4iltVMkGu54WP-36">
          <mxGeometry relative="1" as="geometry" />
        </mxCell>
        <mxCell id="-2s8SgQ4iltVMkGu54WP-42" value="Kumpulkan Barang untuk Pengiriman, Antar barang ke Kantor Pos atau Menunggu Pengambilan" style="verticalLabelPosition=middle;verticalAlign=middle;html=1;shape=trapezoid;perimeter=trapezoidPerimeter;whiteSpace=wrap;size=0.23;arcSize=10;flipV=1;labelPosition=center;align=center;spacingLeft=40;spacingRight=40;" vertex="1" parent="WIyWlLk6GJQsqaUBKTNV-1">
          <mxGeometry x="70" y="840" width="300" height="80" as="geometry" />
        </mxCell>
        <mxCell id="-2s8SgQ4iltVMkGu54WP-45" value="Label Pengiriman" style="shape=parallelogram;html=1;strokeWidth=1;perimeter=parallelogramPerimeter;rounded=1;arcSize=12;size=0.23;whiteSpace=wrap;" vertex="1" parent="WIyWlLk6GJQsqaUBKTNV-1">
          <mxGeometry x="120" y="760" width="200" height="40" as="geometry" />
        </mxCell>
      </root>
    </mxGraphModel>
  </diagram>
</mxfile>
